<?xml version="1.0" encoding="UTF-8" standalone="no"?><!DOCTYPE svg PUBLIC "-//W3C//DTD SVG 1.1//EN" "http://www.w3.org/Graphics/SVG/1.1/DTD/svg11.dtd"><svg width="100%" height="100%" viewBox="0 0 5695 1581" version="1.1" xmlns="http://www.w3.org/2000/svg" xmlns:xlink="http://www.w3.org/1999/xlink" xml:space="preserve" xmlns:serif="http://www.serif.com/" style="fill-rule:evenodd;clip-rule:evenodd;stroke-linejoin:round;stroke-miterlimit:2;"><path d="M5387.331,1546.415l0,-976.598c-1.52,-0.784 -3.039,-1.568 -4.559,-2.351c-7.123,12.876 -14.551,25.594 -21.314,38.656c-23.628,45.639 -46.777,91.527 -70.586,137.071c-22.328,42.714 -45.248,85.119 -67.932,127.647c-22.479,42.147 -44.928,84.31 -67.505,126.405c-19.007,35.44 -38.355,70.697 -57.234,106.204c-28.628,53.839 -57.462,107.578 -85.098,161.924c-6.577,12.934 -14.712,16.574 -28.211,16.214c-52.054,-1.388 -104.151,-1.417 -156.174,-3.429c-6.44,-0.249 -14.668,-8.118 -18.445,-14.575c-23.814,-40.711 -47.224,-81.688 -69.562,-123.225c-22.426,-41.703 -43.238,-84.27 -65.142,-126.257c-21.319,-40.867 -43.281,-81.399 -64.677,-122.227c-23.808,-45.431 -46.944,-91.218 -71.027,-136.501c-21.061,-39.6 -43.064,-78.699 -64.59,-118.052c-12.583,-23.005 -25.047,-46.076 -39.473,-72.633l0,982.082l-308.816,0l0,-1516.99c4.098,-0.398 10.115,-1.496 16.13,-1.492c100.153,0.067 200.308,0.54 300.459,0.141c14.214,-0.056 23.3,2.668 30.411,16.464c21.511,41.737 44.787,82.56 67.104,123.885c22.912,42.427 45.684,84.932 68.194,127.573c28.836,54.626 57.234,109.482 86.037,164.125c20.998,39.836 42.019,79.666 63.625,119.173c22.204,40.599 45.599,80.55 67.617,121.248c25.158,46.503 49.454,93.475 73.904,140.359c3.28,6.29 5.269,13.254 9.036,22.941c10.909,-19.637 21.357,-37.559 30.979,-55.914c40.81,-77.848 80.801,-156.13 122.224,-233.647c28.995,-54.257 60.481,-107.181 89.647,-161.35c28.665,-53.237 55.201,-107.619 83.773,-160.908c34.528,-64.396 72.718,-126.973 104.234,-192.774c13.58,-28.354 30.314,-31.756 56.914,-31.417c98.428,1.255 196.881,0.5 296.892,0.5l0,1517.726l-306.833,0Z" style="fill:#6c82ef;fill-rule:nonzero;"/><path d="M2813.4,1529.699c-34.672,-15.049 -69.085,-26.887 -100.021,-44.749c-50.124,-28.941 -100.354,-58.726 -146.128,-93.896c-50.142,-38.525 -95.712,-83.092 -142.443,-125.932c-29.486,-27.032 -57.009,-56.199 -86.336,-83.413c-10.124,-9.395 -10.866,-15.826 -1.06,-25.278c44.25,-42.653 88.025,-85.8 132.323,-128.402c16.211,-15.59 35.766,-28.31 49.432,-45.758c11.976,-15.289 18.857,-12.409 29.992,-1.499c45.167,44.26 89.706,89.225 136.274,131.974c65.23,59.881 138.289,109.445 220.649,141.829c96.507,37.946 196.135,52.688 299.871,27.537c66.877,-16.214 129.208,-40.696 185.006,-80.689c45.862,-32.87 85.355,-72.284 112.476,-122.391c16.882,-31.191 34.491,-62.378 47.297,-95.309c32.073,-82.48 37.766,-168.574 32.018,-256.388c-3.908,-59.702 -18.847,-116.59 -43.134,-169.948c-17.228,-37.849 -43.243,-72.131 -68.123,-105.956c-32.265,-43.866 -74.107,-77.829 -121.885,-103.928c-41.664,-22.76 -84.006,-44.284 -132.281,-49.541c-45.98,-5.008 -92.058,-14.318 -137.963,-13.586c-68.633,1.094 -135.281,16.972 -197.601,47.532c-14.163,6.945 -28.216,14.116 -42.25,21.32c-13.65,7.006 -23.377,7.718 -36.577,-5.73c-61.125,-62.267 -124.226,-122.594 -186.589,-183.647c-3.325,-3.254 -6.373,-6.792 -14.579,-15.591c54.189,-28.011 105.271,-55.093 157.033,-80.806c18.247,-9.064 37.946,-15.408 57.341,-21.926c136.552,-45.892 276.25,-53.072 418.665,-37.282c73.556,8.155 142.789,28.07 210.716,56.222c117.916,48.868 213.817,124.824 291.723,225.635c44.632,57.754 81.398,119.998 106.512,187.649c54.714,147.391 76.378,298.434 46.829,455.852c-13.427,71.531 -32.262,140.98 -62.974,205.683c-43.278,91.177 -100.429,174.537 -181.002,237.657c-48.982,38.372 -99.905,75.441 -154.102,105.659c-57.078,31.824 -119.879,51.646 -183.875,68.121c-68.624,17.667 -138.069,26.854 -208.089,28.956c-74.276,2.23 -148.338,-5.151 -219.816,-28.499c-21.795,-7.119 -43.67,-13.99 -67.328,-21.481Z" style="fill:#6c82ef;fill-rule:nonzero;"/><path d="M2440.748,518.85c-36.468,-32.492 -71.737,-63.684 -106.68,-95.238c-64.451,-58.201 -138.097,-102.64 -221.808,-122.949c-79.92,-19.389 -161.671,-22.605 -244.758,-5.341c-117.489,24.412 -211.94,83.508 -283.768,176.539c-64.446,83.471 -94.443,181.57 -100.554,286.927c-4.755,81.963 10.933,160.955 41.399,235.851c30.546,75.089 76.846,140.115 141.979,191.4c51.838,40.817 108.926,70.463 171.666,87.318c73.906,19.855 148.994,21.671 225.484,9.041c61.258,-10.115 117.582,-29.782 171.91,-58.53c7.343,-3.886 23.581,-1.074 29.935,4.835c67.128,62.437 133.086,126.134 201.473,191.497c-2.705,2.575 -6.812,8.331 -12.388,11.496c-41.072,23.31 -81.461,48.124 -123.927,68.606c-72.426,34.932 -148.08,61.524 -229.124,66.629c-59.772,3.765 -119.808,6.269 -179.653,5.196c-76.038,-1.363 -150.011,-16.243 -222.819,-39.463c-75.924,-24.215 -146.45,-58.949 -211.143,-104.114c-86.52,-60.404 -159.697,-135.73 -212.152,-227.39c-31.93,-55.794 -60.758,-115.515 -77.974,-177.107c-31.119,-111.33 -43.503,-226.23 -23.061,-341.702c10.91,-61.629 20.121,-124.805 41.766,-182.939c21.688,-58.247 55.978,-112.237 88.204,-166.02c45.409,-75.784 109.676,-135.402 181.496,-184.657c48.8,-33.468 103.04,-60.811 158.052,-82.916c57.813,-23.23 118.406,-43.37 179.658,-53.286c85.875,-13.902 173.078,-16.423 260.768,-6.635c64.695,7.222 127.235,21.273 187.15,44.137c46.871,17.886 92.204,41.773 134.745,68.52c50.31,31.631 98.866,66.825 144.515,104.874c44.425,37.029 83.926,79.926 126.156,119.644c23.107,21.733 47.388,42.22 72.061,64.086c-74.913,69.898 -143.195,133.609 -214.278,199.934c-30.472,-28.546 -61.728,-57.826 -94.33,-88.242Z" style="fill:#6c82ef;fill-rule:nonzero;"/><path d="M1099.123,1548.054l-1099.123,0l0,-1520.479l309.455,0l0,1243.795l789.668,0l0,276.684Z" style="fill:#6c82ef;fill-rule:nonzero;"/><path d="M3023.047,681.634c37.303,59.034 42.697,120.907 15.951,181.833c-13.288,30.27 -37.37,57.248 -61.14,81.173c-51.37,51.705 -105.949,100.208 -158.601,150.663c-11.688,11.201 -18.596,12.035 -31.272,-0.013c-59.398,-56.454 -120.015,-111.628 -180.375,-167.064c-12.764,-11.722 -9.303,-20.421 1.447,-32.009c35.655,-38.432 70.126,-77.962 106.471,-118.66c-26.565,-25.397 -60.22,-59.24 -95.807,-90.911c-18.541,-16.501 -17.303,-26.766 0.403,-43.329c58.898,-55.096 115.923,-112.186 174.31,-167.837c12.538,-11.95 23.788,-1.792 33.233,7.186c38.036,36.156 76.576,71.826 113.523,109.071c28.12,28.346 54.117,58.798 81.857,89.895Z" style="fill:#f08b0a;fill-rule:nonzero;"/><path d="M2402.468,981.487c-39.753,37.069 -78.766,72.375 -116.682,108.822c-14.58,14.015 -22.819,20.863 -41.71,1.469c-50.11,-51.443 -105.657,-97.595 -155.673,-149.121c-25.062,-25.819 -49.598,-56.164 -62.188,-89.117c-17.976,-47.052 -18.115,-97.451 6.919,-145.384c35.069,-67.146 95.949,-110.187 147.51,-161.919c25.043,-25.127 51.561,-48.784 80.511,-76.023c34.453,29.56 70.584,59.146 105.055,90.553c30.888,28.143 59.908,58.334 89.836,87.534c12.516,12.211 13.927,21.731 -1.153,34.992c-34.727,30.536 -67.806,62.983 -100.658,95.558c-3.237,3.209 -3.081,15.444 0.238,18.791c32.061,32.332 63.852,65.165 98.452,94.648c17.831,15.194 11.627,25.317 0.453,37.296c-16.126,17.286 -33.114,33.768 -50.91,51.901Z" style="fill:#f08b0a;fill-rule:nonzero;"/></svg>